<svg width="336" height="60" viewBox="0 0 336 60" fill="none" xmlns="http://www.w3.org/2000/svg">
<path d="M40.5117 48.9854H36.3662C36.6396 48.8291 36.8423 48.4629 36.9741 47.8867C37.1108 47.3105 37.2012 46.6929 37.2451 46.0337C37.2891 45.3696 37.311 44.8301 37.311 44.415V22.8379C37.311 22.4375 37.2891 21.9028 37.2451 21.2339C37.2012 20.5601 37.1108 19.9302 36.9741 19.3442C36.8423 18.7534 36.6396 18.3799 36.3662 18.2236L57.6943 18.231V19.4614C57.6309 19.3345 57.5112 19.2222 57.3354 19.1245C56.979 18.9438 56.5078 18.8096 55.9219 18.7217C55.0576 18.5947 54.1299 18.5288 53.1387 18.5239L40.2114 18.5166C40.0454 18.8047 39.9136 19.21 39.8159 19.7324C39.6548 20.6455 39.5718 21.666 39.5669 22.7939V33.3042L49.3667 33.3115C51.2661 33.2725 52.5674 33.0723 53.2705 32.7109C53.4463 32.6133 53.5659 32.501 53.6294 32.374V34.542C53.5659 34.415 53.4463 34.3052 53.2705 34.2124C52.5234 33.8267 51.105 33.624 49.0151 33.6045L39.5669 33.5972L39.5815 44.8765C39.5913 45.3501 39.623 45.8823 39.6768 46.4731C39.7305 47.0591 39.8232 47.5913 39.9551 48.0698C40.0869 48.5483 40.2725 48.8535 40.5117 48.9854ZM65.1797 49.0293C63.8027 49.0293 62.4795 48.7412 61.21 48.165C59.9941 47.6133 58.9175 46.832 57.98 45.8213C57.0132 44.7764 56.2734 43.5923 55.7607 42.269C55.2529 40.9409 54.999 39.5469 54.999 38.0869C54.999 36.627 55.2529 35.2354 55.7607 33.9121C56.2734 32.5889 57.0132 31.4048 57.98 30.3599C58.9175 29.3491 59.9941 28.5679 61.21 28.0161C62.4795 27.4399 63.8027 27.1519 65.1797 27.1519C66.5566 27.1519 67.8774 27.4399 69.1421 28.0161C70.3628 28.5679 71.4419 29.3491 72.3794 30.3599C73.3462 31.4048 74.0835 32.5889 74.5913 33.9121C75.104 35.2354 75.3604 36.627 75.3604 38.0869C75.3604 39.5469 75.104 40.9409 74.5913 42.269C74.0835 43.5923 73.3462 44.7764 72.3794 45.8213C71.4419 46.832 70.3628 47.6133 69.1421 48.165C67.8774 48.7412 66.5566 49.0293 65.1797 49.0293ZM65.1797 48.7363C65.3848 48.7363 65.5898 48.729 65.7949 48.7144C66.8105 48.5972 67.7529 48.2456 68.6221 47.6597C69.4912 47.0737 70.2529 46.3022 70.9072 45.3452C71.5615 44.3833 72.0742 43.2847 72.4453 42.0493C72.8164 40.8091 73.002 39.4907 73.002 38.0942C73.002 36.6782 72.814 35.3477 72.438 34.1025C72.062 32.8525 71.5396 31.7466 70.8706 30.7847C70.2065 29.8228 69.4326 29.0537 68.5488 28.4775C67.665 27.8965 66.7104 27.5571 65.6851 27.4595H65.6777C65.5117 27.4497 65.3457 27.4448 65.1797 27.4448C65.0088 27.4448 64.8403 27.4497 64.6743 27.4595C63.6489 27.5571 62.6943 27.8965 61.8105 28.4775C60.9268 29.0537 60.1504 29.8228 59.4814 30.7847C58.8174 31.7466 58.2974 32.8525 57.9214 34.1025C57.5454 35.3477 57.3574 36.6782 57.3574 38.0942C57.3574 39.4907 57.543 40.8091 57.9141 42.0493C58.2852 43.2847 58.7979 44.3833 59.4521 45.3452C60.1064 46.3022 60.8682 47.0737 61.7373 47.6597C62.6064 48.2456 63.5488 48.5972 64.5645 48.7144C64.75 48.729 64.9551 48.7363 65.1797 48.7363ZM80.3994 49H76.2539C76.5273 48.8389 76.73 48.4702 76.8618 47.894C76.9985 47.313 77.0889 46.6904 77.1328 46.0264C77.1768 45.3623 77.1987 44.8252 77.1987 44.415V20.9189C77.1841 20.4404 76.9448 20.1328 76.481 19.9961C76.3003 19.9473 76.1562 19.9204 76.0488 19.9155C76.0146 19.9155 75.9829 19.9106 75.9536 19.9009C75.8511 19.8472 75.7998 19.769 75.7998 19.6665C75.7998 19.564 75.8511 19.4883 75.9536 19.4395C75.9878 19.4248 76.022 19.4175 76.0562 19.4175C76.4224 19.4077 76.8032 19.3418 77.1987 19.2197C77.8628 19.0195 78.5073 18.7485 79.1323 18.4067L79.4546 18.231V44.3931C79.4546 44.7983 79.4766 45.3354 79.5205 46.0044C79.5645 46.6733 79.6523 47.3008 79.7842 47.8867C79.9209 48.4678 80.126 48.8389 80.3994 49ZM85.7314 49H81.5859C81.8594 48.8389 82.062 48.4702 82.1938 47.894C82.3306 47.313 82.4209 46.6904 82.4648 46.0264C82.5088 45.3623 82.5308 44.8252 82.5308 44.415V20.9189C82.5161 20.4404 82.2769 20.1328 81.813 19.9961C81.6323 19.9473 81.4883 19.9204 81.3809 19.9155C81.3467 19.9155 81.3149 19.9106 81.2856 19.9009C81.1831 19.8472 81.1318 19.769 81.1318 19.6665C81.1318 19.564 81.1831 19.4883 81.2856 19.4395C81.3198 19.4248 81.354 19.4175 81.3882 19.4175C81.7544 19.4077 82.1353 19.3418 82.5308 19.2197C83.1948 19.0195 83.8394 18.7485 84.4644 18.4067L84.7866 18.231V44.3931C84.7866 44.7983 84.8086 45.3354 84.8525 46.0044C84.8965 46.6733 84.9844 47.3008 85.1162 47.8867C85.2529 48.4678 85.458 48.8389 85.7314 49ZM96.6445 49.0293C95.2676 49.0293 93.9443 48.7412 92.6748 48.165C91.459 47.6133 90.3823 46.832 89.4448 45.8213C88.478 44.7764 87.7383 43.5923 87.2256 42.269C86.7178 40.9409 86.4639 39.5469 86.4639 38.0869C86.4639 36.627 86.7178 35.2354 87.2256 33.9121C87.7383 32.5889 88.478 31.4048 89.4448 30.3599C90.3823 29.3491 91.459 28.5679 92.6748 28.0161C93.9443 27.4399 95.2676 27.1519 96.6445 27.1519C98.0215 27.1519 99.3423 27.4399 100.607 28.0161C101.828 28.5679 102.907 29.3491 103.844 30.3599C104.811 31.4048 105.548 32.5889 106.056 33.9121C106.569 35.2354 106.825 36.627 106.825 38.0869C106.825 39.5469 106.569 40.9409 106.056 42.269C105.548 43.5923 104.811 44.7764 103.844 45.8213C102.907 46.832 101.828 47.6133 100.607 48.165C99.3423 48.7412 98.0215 49.0293 96.6445 49.0293ZM96.6445 48.7363C96.8496 48.7363 97.0547 48.729 97.2598 48.7144C98.2754 48.5972 99.2178 48.2456 100.087 47.6597C100.956 47.0737 101.718 46.3022 102.372 45.3452C103.026 44.3833 103.539 43.2847 103.91 42.0493C104.281 40.8091 104.467 39.4907 104.467 38.0942C104.467 36.6782 104.279 35.3477 103.903 34.1025C103.527 32.8525 103.004 31.7466 102.335 30.7847C101.671 29.8228 100.897 29.0537 100.014 28.4775C99.1299 27.8965 98.1753 27.5571 97.1499 27.4595H97.1426C96.9766 27.4497 96.8105 27.4448 96.6445 27.4448C96.4736 27.4448 96.3052 27.4497 96.1392 27.4595C95.1138 27.5571 94.1592 27.8965 93.2754 28.4775C92.3916 29.0537 91.6152 29.8228 90.9463 30.7847C90.2822 31.7466 89.7622 32.8525 89.3862 34.1025C89.0103 35.3477 88.8223 36.6782 88.8223 38.0942C88.8223 39.4907 89.0078 40.8091 89.3789 42.0493C89.75 43.2847 90.2627 44.3833 90.917 45.3452C91.5713 46.3022 92.333 47.0737 93.2021 47.6597C94.0713 48.2456 95.0137 48.5972 96.0293 48.7144C96.2148 48.729 96.4199 48.7363 96.6445 48.7363ZM125.385 49H125.07L119.694 35.4209L114.318 49H114.003C109.569 37.7891 107.318 32.103 107.25 31.9419C107.167 31.7271 107.04 31.4292 106.869 31.0483C106.435 30.0913 105.966 29.2588 105.463 28.5508C104.799 27.6279 104.176 27.1665 103.595 27.1665H109.652C109.12 27.1665 108.854 27.5645 108.854 28.3604C108.854 28.6045 108.878 28.8853 108.927 29.2026C108.981 29.52 109.054 29.8569 109.147 30.2134C109.24 30.5649 109.335 30.8896 109.433 31.1875C109.53 31.4854 109.613 31.7246 109.682 31.9053L109.784 32.1836L115.219 45.9312L119.54 35.0254L118.317 31.9419C118.234 31.7319 118.104 31.4365 117.929 31.0557C117.758 30.6748 117.553 30.2646 117.313 29.8252C117.074 29.3809 116.811 28.9585 116.522 28.5581C116.234 28.1528 115.932 27.8208 115.614 27.562C115.302 27.2983 114.984 27.1665 114.662 27.1665H120.712C120.443 27.1665 120.25 27.2593 120.133 27.4448C119.992 27.6597 119.921 27.9697 119.921 28.375C119.921 29.2295 120.197 30.4185 120.749 31.9419C120.924 31.4927 121.103 30.9287 121.283 30.25C121.483 29.498 121.583 28.8682 121.583 28.3604C121.583 28.2969 121.579 28.1748 121.569 27.9941C121.559 27.8135 121.493 27.6304 121.371 27.4448C121.249 27.2593 121.054 27.1665 120.785 27.1665H124.821C124.508 27.1665 124.198 27.2886 123.891 27.5327C123.319 27.9868 122.755 28.6997 122.199 29.6714C121.686 30.5698 121.256 31.4634 120.91 32.3521L126.286 45.9312L131.801 31.9932L131.72 32.1763C131.74 32.1372 131.796 31.9907 131.889 31.7368C132.138 31.063 132.34 30.3477 132.497 29.5908C132.594 29.127 132.643 28.7095 132.643 28.3384C132.643 27.5571 132.379 27.1665 131.852 27.1665H135.88C135.573 27.1665 135.263 27.2886 134.95 27.5327C134.643 27.7769 134.345 28.0894 134.057 28.4702C133.773 28.8462 133.51 29.249 133.266 29.6787C133.021 30.1035 132.807 30.5063 132.621 30.8872C132.44 31.2632 132.299 31.5732 132.196 31.8174C132.094 32.0566 132.042 32.1787 132.042 32.1836L125.385 49ZM143.732 48.9634H139.594C139.862 48.8071 140.062 48.4409 140.194 47.8647C140.331 47.2886 140.421 46.6709 140.465 46.0117C140.509 45.3477 140.531 44.8081 140.531 44.3931V22.8159C140.531 22.4741 140.514 22.0249 140.48 21.4683C140.451 20.9067 140.39 20.3525 140.297 19.8057C140.209 19.2539 140.072 18.8169 139.887 18.4946L129.157 18.502C128.874 18.502 128.52 18.5117 128.095 18.5312C126.615 18.5996 125.568 18.7925 124.953 19.1099C124.777 19.2026 124.657 19.3125 124.594 19.4395V18.209H158.725V19.4395C158.661 19.3125 158.544 19.2002 158.373 19.1025C158.017 18.9219 157.543 18.7876 156.952 18.6997C156.088 18.5728 155.16 18.5068 154.169 18.502L143.432 18.4946C143.266 18.7827 143.134 19.188 143.036 19.7104C142.875 20.6235 142.794 21.644 142.794 22.772L142.802 44.8545C142.812 45.3232 142.843 45.853 142.897 46.4438C142.951 47.0347 143.043 47.5693 143.175 48.0479C143.307 48.5264 143.493 48.8315 143.732 48.9634ZM179.613 49H175.475C175.744 48.8389 175.944 48.4678 176.076 47.8867C176.212 47.3008 176.303 46.6758 176.347 46.0117C176.391 45.3428 176.413 44.8057 176.413 44.4004V32.9819C176.413 32.6597 176.369 32.2129 176.281 31.6416C176.198 31.0654 176.022 30.4673 175.753 29.8472C175.119 28.3872 173.996 27.5962 172.384 27.4741L172.282 27.4668H172.128L171.828 27.4741C170.944 27.5229 170.099 27.7256 169.293 28.082C168.493 28.4385 167.75 28.873 167.067 29.3857C166.388 29.8984 165.792 30.416 165.28 30.9385C164.538 31.6904 163.935 32.3716 163.471 32.9819V44.3931C163.471 44.7983 163.493 45.3354 163.537 46.0044C163.649 47.7231 163.942 48.7217 164.416 49H160.27C160.744 48.7217 161.037 47.7305 161.149 46.0264C161.193 45.3623 161.215 44.8252 161.215 44.415V20.9189C161.2 20.4404 160.961 20.1328 160.497 19.9961C160.302 19.9424 160.148 19.9155 160.036 19.9155C159.894 19.8813 159.823 19.7983 159.823 19.6665C159.823 19.564 159.875 19.4883 159.977 19.4395L160.058 19.4175C160.404 19.4175 160.79 19.3516 161.215 19.2197C161.869 19.0244 162.514 18.7534 163.148 18.4067L163.471 18.231V32.5132C163.91 31.9614 164.445 31.3657 165.075 30.7261C166.071 29.7397 167.074 28.9512 168.085 28.3604C169.452 27.5693 170.788 27.1738 172.091 27.1738C173.605 27.1738 175.045 27.7085 176.413 28.7778L176.442 28.7998C177.155 29.3662 177.704 30.0498 178.09 30.8506C178.476 31.6514 178.671 32.5083 178.676 33.4214V44.4077C178.676 44.8179 178.698 45.355 178.742 46.019C178.786 46.6831 178.874 47.3057 179.005 47.8867C179.142 48.4678 179.345 48.8389 179.613 49ZM190.519 49C189.167 49 187.848 48.7144 186.564 48.1431C185.333 47.5767 184.254 46.7954 183.327 45.7993C182.326 44.7202 181.581 43.5166 181.093 42.1885C180.604 40.8604 180.36 39.5054 180.36 38.1235C180.36 36.6636 180.619 35.2476 181.137 33.8755C181.659 32.4985 182.426 31.2754 183.437 30.2061C184.447 29.1367 185.688 28.3164 187.157 27.7451C188.251 27.335 189.372 27.1299 190.519 27.1299C192.033 27.1299 193.493 27.4814 194.899 28.1846C195.622 28.5508 196.291 29.0024 196.906 29.5396H196.913L196.957 29.5762V29.5835C198.783 31.2192 199.953 33.2407 200.465 35.6479H185.465V35.355H198.1C197.724 33.4751 197.042 31.8638 196.056 30.521C195.998 30.4771 195.954 30.4209 195.924 30.3525C195.348 29.5908 194.66 28.9487 193.859 28.4263C193.063 27.9038 192.189 27.5815 191.237 27.4595L191.222 27.4521C191.164 27.4521 191.1 27.4473 191.032 27.4375C190.866 27.4277 190.7 27.4229 190.534 27.4229C190.368 27.4229 190.199 27.4277 190.028 27.4375H190.036H190.028H190.036H190.028C189.276 27.5059 188.563 27.7085 187.89 28.0454C187.216 28.3774 186.608 28.8022 186.066 29.3198C184.943 30.4038 184.105 31.7173 183.554 33.2603C183.002 34.8032 182.726 36.4023 182.726 38.0576C182.726 39.7471 183.007 41.3706 183.568 42.9282C184.135 44.4858 184.972 45.7871 186.081 46.832C186.593 47.3203 187.162 47.7256 187.787 48.0479C188.642 48.4922 189.555 48.7144 190.526 48.7144C191.991 48.7144 193.378 48.3848 194.687 47.7256C195.795 47.1689 196.769 46.4268 197.609 45.499L197.975 45.5283C197.292 46.3193 196.532 46.9761 195.697 47.4985L195.595 47.5645C194.823 48.043 194.005 48.4019 193.141 48.6411C192.282 48.8804 191.408 49 190.519 49ZM205.102 48.9854H200.956C201.229 48.8291 201.432 48.4629 201.564 47.8867C201.701 47.3105 201.791 46.6929 201.835 46.0337C201.879 45.3696 201.901 44.8301 201.901 44.415V22.8379C201.901 22.4375 201.879 21.9028 201.835 21.2339C201.791 20.5601 201.701 19.9302 201.564 19.3442C201.432 18.7534 201.229 18.3799 200.956 18.2236L222.284 18.231V19.4614C222.221 19.3345 222.101 19.2222 221.925 19.1245C221.569 18.9438 221.098 18.8096 220.512 18.7217C219.647 18.5947 218.72 18.5288 217.729 18.5239L204.801 18.5166C204.635 18.8047 204.503 19.21 204.406 19.7324C204.245 20.6455 204.162 21.666 204.157 22.7939V33.3042L213.957 33.3115C215.856 33.2725 217.157 33.0723 217.86 32.7109C218.036 32.6133 218.156 32.501 218.219 32.374V34.542C218.156 34.415 218.036 34.3052 217.86 34.2124C217.113 33.8267 215.695 33.624 213.605 33.6045L204.157 33.5972L204.171 44.8765C204.181 45.3501 204.213 45.8823 204.267 46.4731C204.32 47.0591 204.413 47.5913 204.545 48.0698C204.677 48.5483 204.862 48.8535 205.102 48.9854ZM234.604 49.0073H234.01L233.659 49C233.317 48.9951 233.017 48.9341 232.758 48.8169C232.045 48.48 231.605 47.9282 231.439 47.1616C231.415 47.0298 231.403 46.8955 231.403 46.7588V46.6782H231.396L231.403 46.6709V42.7085C231.403 40.0864 231.4 38.5898 231.396 38.2188C231.122 37.8672 230.817 37.5474 230.48 37.2593L230.224 37.0542C229.228 36.2876 228.08 35.8457 226.781 35.7285C226.61 35.7139 226.439 35.7065 226.269 35.7065L225.998 35.7139C225.075 35.8604 224.303 36.2559 223.683 36.9004C223.068 37.54 222.604 38.3335 222.292 39.2808C221.984 40.2231 221.83 41.2021 221.83 42.2178C221.83 43.2188 221.979 44.1831 222.277 45.1108C222.575 46.0386 223.021 46.8247 223.617 47.4692C224.213 48.1138 224.958 48.5264 225.851 48.707C225.993 48.7168 226.134 48.7217 226.276 48.7217C227.228 48.7217 228.148 48.5142 229.037 48.0991L229.169 48.3628C228.236 48.7925 227.27 49.0073 226.269 49.0073C225.688 49.0073 225.114 48.9365 224.547 48.7949C223.981 48.6484 223.444 48.4312 222.936 48.1431C222.174 47.7134 221.52 47.1592 220.973 46.4805C220.475 45.875 220.099 45.2036 219.845 44.4663C219.591 43.729 219.464 42.9746 219.464 42.2031C219.464 41.9248 219.481 41.6489 219.516 41.3755C219.521 41.3755 219.523 41.373 219.523 41.3682C219.65 40.3379 219.994 39.3882 220.556 38.519C220.868 38.0454 221.229 37.6182 221.64 37.2373C222.274 36.6416 222.995 36.1899 223.8 35.8823C224.606 35.5698 225.434 35.4136 226.283 35.4136C227.016 35.4136 227.736 35.5332 228.444 35.7725C228.747 35.8701 229.04 35.9922 229.323 36.1387C230.119 36.5391 230.81 37.0762 231.396 37.75L231.403 35.0767C231.413 34.7593 231.417 34.437 231.417 34.1099C231.417 33.4702 231.388 32.833 231.33 32.1982C231.046 29.0488 229.813 27.4741 227.631 27.4741H227.484C226.439 27.4741 225.614 27.772 225.009 28.3677C224.525 28.8511 224.193 29.4565 224.013 30.1841C223.92 30.5698 223.874 30.9043 223.874 31.1875C223.844 31.4463 223.734 31.666 223.544 31.8467C223.354 32.0225 223.112 32.1104 222.819 32.1104C222.531 32.1104 222.289 32.0054 222.094 31.7954C221.903 31.5806 221.808 31.3389 221.808 31.0703C221.808 30.9238 221.842 30.7773 221.911 30.6309C222.208 29.9082 222.65 29.2905 223.236 28.7778C223.822 28.2651 224.491 27.8721 225.243 27.5986C226 27.3203 226.769 27.1812 227.55 27.1812H227.755C228.708 27.1812 229.63 27.3911 230.524 27.811C231.422 28.2261 232.16 28.8022 232.736 29.5396C233.312 30.2769 233.62 31.1362 233.659 32.1177V44.4224C233.659 44.8325 233.681 45.3696 233.725 46.0337C233.769 46.6978 233.856 47.3203 233.988 47.9014C234.125 48.4824 234.33 48.8511 234.604 49.0073ZM243.495 49.0293C242.304 49.0293 240.922 48.79 239.35 48.3115C238.617 48.0869 237.921 47.8452 237.262 47.5864C236.51 47.2886 235.946 47.0249 235.57 46.7954C235.541 46.7808 235.395 46.688 235.131 46.5171L236.706 44.4004C236.706 44.5908 236.791 44.8472 236.962 45.1694C237.309 45.814 238.109 46.561 239.364 47.4106C240.102 47.9038 240.963 48.3018 241.95 48.6045C242.482 48.6924 243 48.7363 243.502 48.7363C244.152 48.7363 244.691 48.6484 245.121 48.4727C246.522 47.7451 247.25 46.8931 247.304 45.9165V45.814C247.304 44.7446 246.527 43.5142 244.975 42.1226C244.281 41.5171 243.573 40.9653 242.851 40.4673C242.128 39.9692 241.493 39.5469 240.946 39.2002L240.47 38.8926C239.293 38.1211 238.305 37.3203 237.504 36.4902C236.088 35.0254 235.38 33.5898 235.38 32.1836C235.38 31.2021 235.727 30.2549 236.42 29.3418C237.558 27.8477 239.171 27.1006 241.261 27.1006C241.94 27.1006 242.663 27.1836 243.429 27.3496C244.499 27.584 245.546 27.9331 246.571 28.397C246.625 28.4165 246.676 28.4409 246.725 28.4702C247.067 28.6753 247.238 28.9658 247.238 29.3418C247.238 29.6201 247.138 29.8569 246.938 30.0522C246.742 30.2476 246.508 30.3452 246.234 30.3452C246.044 30.3452 245.868 30.2964 245.707 30.1987C244.418 29.3735 243.659 28.917 243.429 28.8291C242.121 28.209 240.927 27.8989 239.848 27.8989C239.071 27.8989 238.378 28.0723 237.768 28.4189C237.475 28.6387 237.201 28.8877 236.947 29.166C236.928 29.1855 236.891 29.249 236.837 29.3564C236.676 29.6592 236.596 30.0327 236.596 30.4771C236.596 30.7651 236.647 31.1021 236.75 31.4878C236.852 31.8687 237.04 32.2935 237.313 32.7622C237.587 33.2261 237.97 33.7314 238.463 34.2783C238.957 34.8203 239.589 35.4014 240.36 36.0215C241.137 36.6416 242.079 37.2983 243.188 37.9917C244.657 38.9097 245.871 39.8179 246.828 40.7163C247.79 41.6099 248.502 42.4692 248.966 43.2944C249.435 44.1196 249.669 44.8789 249.669 45.5723C249.669 46.2607 249.445 46.8638 248.996 47.3813C248.546 47.8989 247.885 48.3018 247.011 48.5898C246.137 48.8779 245.06 49.022 243.781 49.022L243.495 49.0293ZM269.95 49H265.812C266.081 48.8389 266.281 48.4678 266.413 47.8867C266.549 47.3008 266.64 46.6758 266.684 46.0117C266.728 45.3428 266.75 44.8057 266.75 44.4004V32.9819C266.75 32.6597 266.706 32.2129 266.618 31.6416C266.535 31.0654 266.359 30.4673 266.09 29.8472C265.456 28.3872 264.333 27.5962 262.721 27.4741L262.619 27.4668H262.465L262.165 27.4741C261.281 27.5229 260.436 27.7256 259.63 28.082C258.83 28.4385 258.087 28.873 257.404 29.3857C256.725 29.8984 256.129 30.416 255.617 30.9385C254.875 31.6904 254.271 32.3716 253.808 32.9819V44.3931C253.808 44.7983 253.83 45.3354 253.874 46.0044C253.986 47.7231 254.279 48.7217 254.752 49H250.607C251.081 48.7217 251.374 47.7305 251.486 46.0264C251.53 45.3623 251.552 44.8252 251.552 44.415V20.9189C251.537 20.4404 251.298 20.1328 250.834 19.9961C250.639 19.9424 250.485 19.9155 250.373 19.9155C250.231 19.8813 250.16 19.7983 250.16 19.6665C250.16 19.564 250.211 19.4883 250.314 19.4395L250.395 19.4175C250.741 19.4175 251.127 19.3516 251.552 19.2197C252.206 19.0244 252.851 18.7534 253.485 18.4067L253.808 18.231V32.5132C254.247 31.9614 254.782 31.3657 255.412 30.7261C256.408 29.7397 257.411 28.9512 258.422 28.3604C259.789 27.5693 261.125 27.1738 262.428 27.1738C263.942 27.1738 265.382 27.7085 266.75 28.7778L266.779 28.7998C267.492 29.3662 268.041 30.0498 268.427 30.8506C268.812 31.6514 269.008 32.5083 269.013 33.4214V44.4077C269.013 44.8179 269.035 45.355 269.079 46.019C269.123 46.6831 269.21 47.3057 269.342 47.8867C269.479 48.4678 269.682 48.8389 269.95 49ZM275.275 49H271.137C271.405 48.8389 271.605 48.4702 271.737 47.894C271.874 47.313 271.964 46.6904 272.008 46.0264C272.052 45.3574 272.074 44.8179 272.074 44.4077V29.8618C272.06 29.3833 271.82 29.0781 271.356 28.9463C271.181 28.8926 271.039 28.8633 270.932 28.8584C270.897 28.8584 270.866 28.8535 270.836 28.8438C270.734 28.7949 270.683 28.7168 270.683 28.6094C270.683 28.5068 270.734 28.4312 270.836 28.3823C270.866 28.3726 270.897 28.3677 270.932 28.3677C271.298 28.353 271.679 28.2847 272.074 28.1626C272.743 27.9624 273.388 27.6914 274.008 27.3496L274.337 27.1738V44.3931C274.337 44.7983 274.359 45.3354 274.403 46.0044C274.447 46.6733 274.535 47.3008 274.667 47.8867C274.804 48.4678 275.006 48.8389 275.275 49ZM272.99 25.4526C272.663 25.4526 272.382 25.3379 272.147 25.1084C271.918 24.874 271.803 24.5933 271.803 24.2661C271.803 23.9341 271.918 23.6533 272.147 23.4238C272.382 23.1895 272.663 23.0723 272.99 23.0723C273.322 23.0723 273.603 23.1895 273.832 23.4238C274.066 23.6533 274.184 23.9341 274.184 24.2661C274.184 24.5933 274.066 24.874 273.832 25.1084C273.603 25.3379 273.322 25.4526 272.99 25.4526ZM286.195 49.022C284.784 49.022 283.463 48.7388 282.233 48.1724C281.002 47.6011 279.923 46.8149 278.996 45.814C278.029 44.7739 277.289 43.5923 276.776 42.269C276.269 40.9409 276.015 39.5469 276.015 38.0869C276.015 36.5439 276.288 35.1035 276.835 33.7656C277.387 32.4277 278.134 31.2607 279.076 30.2646C280.023 29.2686 281.105 28.502 282.321 27.9648L282.167 28.104C281.41 28.7778 280.88 29.6348 280.578 30.6748C279.889 31.6416 279.35 32.7598 278.959 34.0293C278.568 35.2939 278.373 36.6465 278.373 38.0869C278.373 39.4883 278.559 40.8091 278.93 42.0493C279.301 43.2847 279.813 44.3833 280.468 45.3452C281.122 46.3022 281.884 47.0737 282.753 47.6597C283.817 48.3726 284.965 48.729 286.195 48.729C286.4 48.729 286.605 48.7217 286.811 48.707C288.158 48.5508 289.369 47.9966 290.443 47.0444C291.518 46.0874 292.372 44.8472 293.007 43.3237C293.646 41.8003 293.983 40.1084 294.018 38.248C294.799 37.8672 295.565 37.4082 296.317 36.8711C296.356 37.2715 296.376 37.6768 296.376 38.0869C296.376 39.6201 296.107 41.0508 295.57 42.3789C295.033 43.7021 294.298 44.8594 293.366 45.8506C292.438 46.8369 291.371 47.6084 290.165 48.165C288.896 48.7363 287.572 49.022 286.195 49.022ZM316.173 49H312.028L312.145 48.9268C312.145 48.917 312.15 48.9121 312.16 48.9121C312.243 48.834 312.331 48.707 312.423 48.5312L312.46 48.4434C312.631 47.9941 312.753 47.4595 312.826 46.8394C312.831 46.8101 312.836 46.7808 312.841 46.7515C312.846 46.7222 312.848 46.6758 312.848 46.6123L312.899 46.1143C312.924 45.8115 312.936 45.6064 312.936 45.499C312.951 45.3184 312.958 45.1353 312.958 44.9497C312.968 44.8911 312.973 40.9019 312.973 32.9819C312.973 32.689 312.936 32.2812 312.863 31.7588C312.672 30.4307 312.196 29.3613 311.435 28.5508C311.259 28.375 311.063 28.2139 310.849 28.0674C310.785 28.0234 310.719 27.9844 310.651 27.9502C310.587 27.9111 310.524 27.877 310.46 27.8477C310.421 27.8232 310.38 27.8037 310.336 27.7891C310.165 27.7158 310.045 27.6719 309.977 27.6572C309.669 27.5547 309.325 27.4937 308.944 27.4741L308.827 27.4668C308.617 27.4668 308.407 27.4717 308.197 27.4814L307.956 27.5034C307.565 27.562 307.301 27.6084 307.165 27.6426L306.813 27.7378C306.715 27.7622 306.618 27.7915 306.52 27.8257C306.461 27.8501 306.403 27.8696 306.344 27.8843C306.276 27.9136 306.205 27.9404 306.132 27.9648L305.722 28.1406C305.224 28.3652 304.755 28.6216 304.315 28.9097C304.12 29.0366 303.927 29.1685 303.737 29.3052C303.473 29.4956 303.222 29.6934 302.982 29.8984L302.521 30.2866L302.125 30.6528C302.023 30.7456 301.928 30.8408 301.84 30.9385C301.806 30.9678 301.774 30.9995 301.745 31.0337C301.51 31.2681 301.283 31.5073 301.063 31.7515C301.054 31.7563 301.046 31.7637 301.042 31.7734C301.037 31.7783 301.02 31.7979 300.99 31.832C300.619 32.2568 300.39 32.5254 300.302 32.6377C300.302 32.6523 300.29 32.6719 300.265 32.6963C300.255 32.7012 300.248 32.7061 300.243 32.7109C300.243 32.7158 300.241 32.7183 300.236 32.7183C300.236 32.7183 300.236 32.7207 300.236 32.7256C299.425 33.707 298.605 34.5713 297.775 35.3184C296.803 36.1875 295.822 36.9102 294.831 37.4863C292.731 38.6777 290.648 39.2734 288.583 39.2734C288.373 39.2734 288.161 39.2661 287.946 39.2515C286.129 39.1294 284.574 38.5728 283.28 37.5815C281.815 36.3999 280.949 34.9229 280.68 33.1504C280.646 32.8965 280.629 32.6426 280.629 32.3887C280.629 31.5195 280.81 30.6968 281.171 29.9204C281.547 29.1196 282.084 28.4775 282.782 27.9941C283.441 27.54 284.374 27.2642 285.58 27.1665C285.688 27.1567 285.871 27.1494 286.129 27.1445C287.555 27.1445 288.9 27.4326 290.165 28.0088C291.381 28.5605 292.46 29.3418 293.402 30.3525C294.848 31.9248 295.771 33.7705 296.171 35.8896C295.639 36.2949 295.094 36.6562 294.538 36.9736C294.362 37.0811 294.181 37.1812 293.996 37.2739C293.883 35.4966 293.498 33.8901 292.838 32.4546C292.179 31.019 291.317 29.8594 290.253 28.9756C289.193 28.0918 288.009 27.584 286.701 27.4521C286.417 27.4424 286.205 27.4375 286.063 27.4375C284.657 27.4961 283.605 27.7744 282.907 28.2725C282.687 28.4287 282.575 28.5142 282.57 28.5288L282.423 28.6753C282.311 28.7729 282.199 28.8877 282.086 29.0195C281.715 29.4639 281.427 29.9766 281.222 30.5576C281.022 31.1387 280.922 31.7441 280.922 32.374C280.922 32.6182 280.939 32.8647 280.973 33.1138C281.227 34.8081 282.055 36.2192 283.456 37.3472C284.711 38.3091 286.212 38.8462 287.96 38.9585C288.17 38.9731 288.38 38.9805 288.59 38.9805C290.382 38.9805 292.189 38.519 294.01 37.5962C294.24 37.4839 294.464 37.3618 294.684 37.23C296.53 36.1704 298.312 34.5981 300.031 32.5132L300.265 32.2275C300.495 31.9443 300.849 31.5464 301.327 31.0337L301.627 30.7261C302.628 29.7397 303.634 28.9512 304.645 28.3604C305.91 27.6279 307.152 27.2349 308.373 27.1812L308.659 27.1738C310.167 27.1738 311.605 27.7085 312.973 28.7778C313.056 28.8413 313.134 28.9072 313.207 28.9756C313.28 29.0391 313.351 29.1025 313.419 29.166C313.717 29.4639 313.913 29.6836 314.005 29.8252C314.04 29.8643 314.071 29.9058 314.101 29.9497C314.179 30.0522 314.254 30.1597 314.328 30.272L314.489 30.543L314.701 30.9751C314.926 31.4585 315.08 31.9785 315.163 32.5352C315.202 32.7842 315.221 32.9697 315.221 33.0918C315.226 33.165 315.229 36.937 315.229 44.4077C315.233 44.4614 315.236 44.5957 315.236 44.8105C315.246 44.9619 315.25 45.1133 315.25 45.2646C315.255 45.2891 315.258 45.3159 315.258 45.3452C315.258 45.4185 315.263 45.4941 315.272 45.5723L315.302 46.1216L315.353 46.627L315.382 46.8979C315.534 48.0942 315.797 48.7949 316.173 49ZM300.968 49H296.83C297.216 48.7803 297.482 48.0625 297.628 46.8467C297.721 46.0312 297.768 45.2231 297.768 44.4224L297.775 35.7139C298.537 35.04 299.289 34.2759 300.031 33.4214V44.5322L300.06 45.4478C300.084 45.8628 300.121 46.3096 300.17 46.7881C300.238 47.3643 300.348 47.8818 300.5 48.3408C300.617 48.6387 300.744 48.8389 300.88 48.9414L300.976 48.9927L300.968 49ZM297.775 34.52V29.8545C297.76 29.5811 297.68 29.3735 297.533 29.2319C297.392 29.0903 297.23 28.9951 297.05 28.9463C296.874 28.8926 296.732 28.8633 296.625 28.8584C296.591 28.8584 296.559 28.8535 296.53 28.8438C296.427 28.7949 296.376 28.7168 296.376 28.6094C296.376 28.541 296.398 28.4849 296.442 28.4409C296.491 28.3921 296.549 28.3652 296.618 28.3604C296.984 28.3604 297.365 28.2993 297.76 28.1772C298.156 28.0503 298.524 27.9111 298.866 27.7598C299.208 27.6035 299.489 27.4668 299.708 27.3496L300.031 27.1738V32.0518C299.298 32.9648 298.546 33.7876 297.775 34.52Z" fill="#101010"/>
<path d="M6.1875 25.1484H11.5781L15.0703 15.5625H17.8125L14.3203 25.1484H21.7969L25.2891 15.5625H28.0078L24.5156 25.1484H30.3516L29.6016 27.3281H23.7422L20.0625 37.3594H25.8984L25.1484 39.5391H19.2891L16.2188 48H13.4766L16.5469 39.5391H9.09375L6 48H3.28125L6.35156 39.5391H0.984375L1.73438 37.3594H7.14844L10.8047 27.3281H5.41406L6.1875 25.1484ZM9.86719 37.3594H17.3438L21 27.3281H13.5469L9.86719 37.3594Z" fill="#5F498A"/>
</svg>
