<svg width="722" height="558" viewBox="0 0 722 558" fill="none" xmlns="http://www.w3.org/2000/svg">
<g filter="url(#filter0_d_656_4912)">
<path d="M690.512 20.2405C690.512 20.2405 685.353 20.2988 675.945 20.4051C671.241 20.4586 665.475 20.5237 658.76 20.5997C652.443 16.8228 643.608 28.2368 635.883 20.8584C627.333 21.4464 617.935 22.1834 607.997 21.174C603.624 22.9889 599.965 16.7022 595.061 21.3205C591.319 14.7015 585.984 22.3578 581.423 21.4748C578.11 23.5279 574.736 25.6991 571.712 24.0331C568.704 22.2245 564.951 27.1735 561.65 27.3338C558.349 27.494 555.156 26.1833 552.239 21.8051C543.349 10.0353 531.911 19.3409 520.84 22.1603C514.894 32.7561 512.032 12.9248 506.093 22.3274C501.957 14.2895 496.662 16.9203 491.013 22.498C489.295 16.6233 485.844 27.418 483.63 26.1568C481.079 28.1432 478.642 28.9361 476.928 22.6577C472.844 16.4278 467.061 26.2729 462.621 22.8194C457.494 26.0078 453.29 19.9646 448.063 23.5382C443.766 18.1164 437.91 27.5111 433.454 23.1492C428.728 21.3925 421.862 40.1101 418.547 24.3016C413.369 26.5116 408.72 23.4265 403.732 23.4858C401.233 25.0646 398.841 25.5869 396.512 25.4732C394.183 25.3596 391.918 24.6099 389.672 23.6446C384.976 23.6975 380.271 23.7509 375.562 23.8043C365.705 28.1477 356.341 27.5553 347.282 24.1243C337.476 27.9193 328.503 23.7729 319.075 24.4433C314.361 24.7755 309.709 24.6167 305.067 24.4942C300.384 24.7769 296.34 19.0126 291.124 24.7598C289.953 14.7932 286.937 22.7194 284.527 24.8343C282.548 22.7689 279.072 35.2291 277.957 24.9088C276.061 22.1309 273.353 27.2627 271.417 24.9827C270.196 15.7717 267.091 24.846 264.909 25.0562C260.895 22.0736 256.235 25.5634 252.14 23.841C248.272 19.9284 243.437 25.6197 239.249 25.3468C235.78 18.111 230.746 26.3092 226.722 25.0499C221.917 31.3483 218.259 26.8707 214.303 25.6291C212.358 24.6843 210.395 23.9993 208.38 23.9101C206.366 23.821 204.299 24.3276 202.146 25.7667C198.1 26.12 194.46 22.9306 190.226 25.9015C186.17 27.1554 182.58 24.3105 178.856 23.2104C175.132 22.1104 171.357 21.9506 167.18 26.1622C159.047 32.4278 152.803 22.346 145.319 26.4096C138.508 23.9758 131.558 25.0391 124.803 26.6419C121.565 22.2637 117.077 30.7432 113.96 26.7644C110.132 29.6598 106.846 28.1085 103.615 26.8815C100.348 26.0005 97.0512 26.2587 93.8344 26.635C90.6175 27.0113 87.4805 27.5058 84.5337 27.0971C78.9776 23.0144 73.1269 25.5315 67.7796 27.2867C63.349 20.1739 57.9869 26.1739 53.5744 27.4474C48.7626 32.5885 45.5414 26.8011 42.1403 27.5768C39.2953 22.9688 36.1476 26.1132 33.6985 27.6724C31.3216 28.5362 29.6016 28.2153 28.4707 27.7317C27.2884 27.7449 26.6788 27.7517 26.6788 27.7517C26.6788 27.7517 27.9886 29.9842 26.7469 33.7792C23.2199 37.3381 23.3267 43.0986 26.9385 50.7764C34.2802 58.8398 32.6852 67.5344 27.2354 77.1139C16.3265 79.7898 18.8986 84.0401 27.3702 89.066C29.4071 91.3519 29.0073 93.427 28.3169 95.5125C27.4883 97.5832 25.2691 99.5501 27.5162 102.017C25.9178 104.086 30.639 106.846 31.0824 109.2C28.4551 111.237 32.6152 114.011 29.6556 116.085C32.0438 118.711 34.9255 121.422 29.8623 123.344C26.5632 125.45 31.5425 128.443 27.8381 130.57C25.4582 133.669 28.7956 137.415 29.974 140.988C34.7222 144.931 30.6022 148.007 30.5297 151.547C33.8387 155.438 29.4782 158.582 28.1934 162.085C27.3726 164.387 22.5932 166.298 27.9067 169.269C27.4094 171.639 30.6375 174.411 27.747 176.567C26.6376 178.907 25.7983 181.29 27.8455 183.986C28.1581 186.503 28.5678 189.044 28.5251 191.553C28.2228 194.871 29.047 198.33 29.9843 201.822C31.8591 208.805 34.1886 215.918 28.8721 222.302C25.076 226.637 27.8661 231.68 29.0328 236.578C23.3914 240.771 18.8844 245.103 29.195 250.98C34.0313 256.292 22.2879 259.903 27.4726 265.271C27.2643 270.082 27.6848 274.964 29.5218 279.992C25.1245 289.214 27.7823 299.163 29.8486 308.991C28.1508 313.302 27.8867 317.748 30 322.422C33.3208 327.22 26.3133 330.932 30.15 335.74C34.703 340.622 30.9286 344.618 30.8776 348.969C30.8266 353.32 30.5821 357.62 30.4449 361.895C29.7251 366.11 35.1308 370.922 30.589 374.662C41.0054 379.95 36.3387 383.635 30.7301 387.176C25.9982 390.807 22.9043 394.558 31.8101 399.497C32.9831 403.636 34.362 407.743 31.0021 411.3C29.4189 415.041 31.791 419.13 30.8556 422.812C27.9538 426.29 31.1912 430.338 31.2578 433.986C33.0165 438.214 32.3736 442.106 31.0898 445.835C29.0867 449.489 31.5744 453.511 31.519 457.166C28.7902 460.545 28.7182 464.094 29.9691 467.667C30.1377 471.128 30.8619 474.535 31.7523 477.838C37.1986 484.823 25.7895 489.584 31.9527 495.616C30.1465 500.824 37.7945 506.464 32.1163 510.115C32.7107 514.416 37.0639 518.494 32.2384 520.95C35.0588 524.195 32.6259 526.224 32.3148 527.733C34.4693 529.497 30.5861 529.899 32.3412 530.08C31.8071 530.025 30.2725 529.797 34.1332 530.06C34.9971 533.127 31.5675 522.18 39.361 530.001C40.0034 534.853 41.4112 533.596 43.0095 531.742C44.6079 529.888 45.6982 527.366 47.8027 529.905C49.2693 531.783 51.0069 532.241 52.9384 531.986C56.7139 531.92 55.3968 530.593 59.2369 529.776C63.1486 529.054 66.3546 530.513 65.8617 531.103C67.8516 531.95 70.5721 532.387 73.4415 529.615C77.9647 529.769 79.1922 528.168 81.7328 527.405C84.5988 526.676 87.4933 526.652 90.1956 529.426C96.2824 528.372 101.927 535.342 109.277 529.21C112.343 532.038 115.792 531.999 119.399 531.243C122.49 535.476 126.581 530.847 130.464 528.97C136.585 533.506 143.592 531.89 150.981 528.738C154.427 529.565 157.961 530.079 161.6 530.099C165.238 530.119 168.98 529.643 172.841 528.49C176.513 529.175 180.464 527.631 184.272 527.916C187.769 531.209 191.948 528.362 195.888 528.23C199.814 528.244 203.343 532.504 207.808 528.095C211.778 528.472 216.006 526.733 219.964 527.957C224.056 527.883 228.127 528.368 232.258 528.595C236.389 528.821 240.579 528.787 244.911 527.675C248.957 529.326 252.499 536.139 257.652 527.625C261.63 530.476 266.592 524.061 270.571 527.384C280.515 518.79 289.248 522.906 298.046 527.073C301.971 533.731 306.58 533.962 311.391 532.374C315.926 533.446 321.43 525.288 325.949 526.757C330.698 525.999 335.353 526.247 340.004 526.598C344.3 530.383 349.799 522.597 354.098 526.438C363.899 527.839 374.783 518.878 383.971 526.1C393.888 526.264 403.94 524.9 413.701 525.764C418.809 523.999 424.654 514.963 428.578 524.315C433.672 522.354 438.275 524.962 443.074 525.431C453.223 528.266 464.292 521.129 474.06 525.08C479.072 525.816 484.193 525.122 489.257 524.548C494.321 523.974 499.576 521.12 504.112 524.74C508.845 526.451 514.073 522.897 518.704 524.575C523.89 520.891 528.991 517.482 532.962 524.414C543.156 526.579 553.871 520.773 563.281 524.071C568.057 525.04 572.871 524.746 577.602 524.317C582.844 518.934 586.857 524.49 591.415 523.752C595.98 522.939 600.83 518.341 604.547 523.604C605.981 530.34 607.942 531.7 610.12 530.679C612.298 529.657 614.72 525.994 616.994 523.463C622.005 521.721 627.321 515.324 631.518 517.938C635.937 518.393 639.727 523.118 643.799 523.16C645.532 526.114 647.644 524.912 649.753 523.236C651.862 521.559 651.92 519.195 655.689 520.46C657.183 523.708 658.879 524.489 660.611 524.373C662.344 524.258 669.071 523.759 665.757 522.912C666.976 526.674 673.492 525.401 670.392 523.07C668.8 520.894 676.906 519.657 674.718 522.81C676.924 528.046 677.346 522.249 682.23 522.725C687.565 524.208 685.714 524.434 688.02 524.499C688.534 524.38 693.102 524.089 692.581 522.608C696.627 518.973 700.48 520.099 696.173 522.567C691.676 520.449 694.784 526.592 696.147 520.221C702.41 517.712 703.541 516.572 696.07 513.437C704.185 513.271 694.947 510.479 696.008 508.569C688.613 505.785 689.68 503.692 695.948 502.603C684.781 499.329 684.911 497.071 695.871 495.787C700.139 493.812 691.266 490.334 695.784 488.104C684.61 482.023 702.259 478.467 695.602 471.991C690.066 468.526 687.402 465.255 689.151 462.346C693.271 459.681 692.757 456.442 695.393 453.439C688.089 449.409 695.292 446.789 690.625 442.859C691.872 439.54 695.343 436.368 695.16 432.741C696.148 429.235 700.69 426.019 695.035 421.679C690.258 417.429 697.484 414.349 694.906 410.189C687.197 401.998 691.013 394.763 694.648 387.317C691.011 383.03 690.129 378.98 690.565 375.024C691 371.067 692.751 367.203 694.377 363.29C697.161 359.495 694.234 355.073 694.237 350.921C702.368 347.61 695.693 342.735 694.096 338.358C694.777 329.479 698.473 320.789 693.789 311.16C697.259 306.947 696.928 302.323 695.857 297.61C694.785 292.897 693.928 288.194 693.477 283.529C692.007 278.758 693.87 274.326 693.32 269.645C689.75 264.651 691.029 260.161 693.164 255.765C689.691 250.406 689.234 245.365 689.831 240.451C690.51 235.545 710.201 232.621 692.827 225.889C685.981 220.246 687.365 215.478 693.536 211.237C690.302 206.023 688.254 200.965 692.497 196.597C698.315 194.795 698.97 192.47 697.822 189.969C696.675 187.469 686.593 184.056 692.335 182.29C705.742 181.317 703.1 178.697 691.068 175.119C695.142 173.206 674.605 168.763 692.178 168.273C687.296 162.578 676.101 156.301 689.899 152.692C701.488 148.853 697.143 143.45 691.837 138.042C692.96 133.298 694.707 128.713 688.593 123.42C687.695 118.667 678.821 113.194 691.522 110.068C691.751 105.654 690.127 101.164 691.843 97.1471C695.436 93.3246 687.396 88.4275 691.238 84.8986C692.17 75.1789 679.605 64.9354 690.937 58.2121C696.077 50.8484 684.778 42.8345 690.707 37.8281C690.643 32.2024 690.594 27.8056 690.561 24.8147C690.529 21.8252 690.512 20.2405 690.512 20.2405Z" fill="url(#paint0_linear_656_4912)"/>
</g>
<defs>
<filter id="filter0_d_656_4912" x="0" y="0" width="721.297" height="557.39" filterUnits="userSpaceOnUse" color-interpolation-filters="sRGB">
<feFlood flood-opacity="0" result="BackgroundImageFix"/>
<feColorMatrix in="SourceAlpha" type="matrix" values="0 0 0 0 0 0 0 0 0 0 0 0 0 0 0 0 0 0 127 0" result="hardAlpha"/>
<feOffset dy="4"/>
<feGaussianBlur stdDeviation="10"/>
<feComposite in2="hardAlpha" operator="out"/>
<feColorMatrix type="matrix" values="0 0 0 0 0 0 0 0 0 0 0 0 0 0 0 0 0 0 0.2 0"/>
<feBlend mode="normal" in2="BackgroundImageFix" result="effect1_dropShadow_656_4912"/>
<feBlend mode="normal" in="SourceGraphic" in2="effect1_dropShadow_656_4912" result="shape"/>
</filter>
<linearGradient id="paint0_linear_656_4912" x1="30.7813" y1="-36.8709" x2="660.549" y2="558.002" gradientUnits="userSpaceOnUse">
<stop stop-color="white"/>
<stop offset="1" stop-color="#F7F7F7"/>
</linearGradient>
</defs>
</svg>
