<svg width="99" height="54" viewBox="0 0 99 54" fill="none" xmlns="http://www.w3.org/2000/svg">
<path d="M44.2635 24.9036V2.98844H40.6836V0H51.2209V2.98844H47.641V24.9036H44.2635Z" fill="black"/>
<path d="M52.8431 24.9036V0H56.2051V10.802H59.8317V0H63.1937V24.9036H59.8317V13.7904H56.2051V24.9036H52.8431Z" fill="black"/>
<path d="M66.0975 24.9036V0H74.985V2.98844H69.4595V10.802H74.6737V13.7904H69.4595V21.9152H74.985V24.9036H66.0975Z" fill="black"/>
<path d="M0 53.7346V28.831H3.5799L3.5332 34.7923L2.97287 40.7692H3.64216L5.38541 34.5122L7.36214 28.831H11.051L7.12867 39.524L11.3312 53.7346H7.9069L4.91847 43.3374L3.42425 46.855V53.7346H0Z" fill="black"/>
<path d="M17.8606 53.9992C15.9928 53.9992 14.6439 53.6049 13.8137 52.8163C12.994 52.0173 12.5686 50.6943 12.5374 48.8473C12.5063 47.6021 12.4855 46.3466 12.4752 45.0806C12.4648 43.8147 12.4596 42.5488 12.4596 41.2828C12.4596 40.0065 12.4648 38.7406 12.4752 37.485C12.4855 36.2191 12.5063 34.9583 12.5374 33.7028C12.5686 31.8661 12.994 30.5535 13.8137 29.7649C14.6439 28.9659 15.9928 28.5664 17.8606 28.5664C19.7283 28.5664 21.0669 28.9659 21.8763 29.7649C22.696 30.5535 23.1267 31.8661 23.1682 33.7028C23.2097 34.9687 23.2356 36.2347 23.246 37.5006C23.2667 38.7665 23.2771 40.0325 23.2771 41.2984C23.2771 42.5643 23.2667 43.8303 23.246 45.0962C23.2356 46.3518 23.2097 47.6021 23.1682 48.8473C23.1267 50.6943 22.696 52.0173 21.8763 52.8163C21.0669 53.6049 19.7283 53.9992 17.8606 53.9992ZM17.8606 51.2132C18.5247 51.2132 19.0124 51.0731 19.3237 50.7929C19.635 50.5024 19.7958 50.051 19.8062 49.4388C19.8581 48.1521 19.8892 46.8187 19.8996 45.4386C19.9203 44.0482 19.9307 42.6473 19.9307 41.2361C19.9307 39.8249 19.9203 38.4345 19.8996 37.0648C19.8788 35.6951 19.8477 34.3773 19.8062 33.1113C19.7958 32.4991 19.6298 32.0529 19.3081 31.7728C18.9968 31.4822 18.5143 31.3369 17.8606 31.3369C17.2069 31.3369 16.7192 31.4822 16.3975 31.7728C16.0862 32.0529 15.9202 32.4991 15.8994 33.1113C15.8579 34.3773 15.8216 35.6951 15.7905 37.0648C15.7697 38.4345 15.7593 39.8249 15.7593 41.2361C15.7697 42.6473 15.7853 44.0482 15.806 45.4386C15.8268 46.8187 15.8579 48.1521 15.8994 49.4388C15.9202 50.051 16.0862 50.5024 16.3975 50.7929C16.7192 51.0731 17.2069 51.2132 17.8606 51.2132Z" fill="black"/>
<path d="M25.9616 53.7346V28.831H30.8645C32.7219 28.831 34.0656 29.2201 34.8957 29.9984C35.7362 30.7766 36.1876 32.0685 36.2499 33.874C36.281 34.6315 36.2966 35.3267 36.2966 35.9597C36.3069 36.5823 36.3069 37.1997 36.2966 37.8119C36.2966 38.4137 36.281 39.0519 36.2499 39.7263C36.2187 40.8989 36.0164 41.8535 35.6428 42.5903C35.2797 43.3166 34.7141 43.8562 33.9463 44.209L36.6701 53.7346H33.0902L30.7711 44.7693H29.3235V53.7346H25.9616ZM29.3235 41.7965H30.8489C31.5234 41.7965 32.0214 41.6408 32.3431 41.3295C32.6752 41.0078 32.8568 40.5305 32.8879 39.8976C32.919 39.2335 32.9398 38.5538 32.9501 37.8586C32.9605 37.153 32.9605 36.4526 32.9501 35.7573C32.9398 35.0517 32.919 34.3669 32.8879 33.7028C32.8568 33.0698 32.6804 32.5977 32.3587 32.2864C32.037 31.9751 31.5389 31.8194 30.8645 31.8194H29.3235V41.7965Z" fill="black"/>
<path d="M38.7903 53.7346V28.831H47.6778V31.8194H42.1523V39.633H47.3665V42.6214H42.1523V50.7462H47.6778V53.7346H38.7903Z" fill="black"/>
<path d="M48.8761 53.7346L51.9268 28.831H57.5301L60.5808 53.7346H57.141L56.5495 47.5243H52.9073L52.3314 53.7346H48.8761ZM53.2342 44.5359H56.2382L55.709 39.0571L55.1642 31.8194H54.2926L53.7634 39.0571L53.2342 44.5359Z" fill="black"/>
<path d="M62.5327 53.7346V28.831H67.6691L69.2878 36.7379L71.2023 50.7462H71.965L71.3424 38.5746L71.0933 28.831H74.3619V53.7346H68.9921L67.28 45.1896L65.7546 31.8039H64.9452L65.5211 44.3024L65.7857 53.7346H62.5327Z" fill="black"/>
<rect x="76.8467" y="0.0556641" width="22.0345" height="53.6797" fill="#FF2451"/>
<path d="M96.7718 48.2908L79.5193 50.6199L79.5193 47.7409L88.4043 46.5548L94.3133 46.296V45.703L88.4043 45.4442L79.5193 44.2581L79.5193 41.3791L96.7718 43.7081V48.2908Z" fill="white"/>
<path d="M96.7718 38.4342H79.5193L79.5193 35.6414H96.7718V38.4342Z" fill="white"/>
<path d="M96.7718 32.0546H79.5193L79.5193 28.4208C79.5193 26.9687 79.8176 25.9084 80.4143 25.2399C81.0109 24.5713 81.9957 24.2335 83.3688 24.2263C83.6994 24.2263 84.0049 24.2263 84.2853 24.2263C84.5585 24.2263 84.828 24.2335 85.094 24.2478C85.8272 24.291 86.4131 24.4527 86.8516 24.7331C87.2829 25.0062 87.5956 25.4375 87.7897 26.027H88.2857C88.4798 25.416 88.7961 24.9703 89.2346 24.6899C89.6731 24.4096 90.2734 24.255 91.0353 24.2263C91.3732 24.2119 91.6859 24.2047 91.9735 24.2047C92.261 24.2047 92.5773 24.2119 92.9223 24.2263C94.2882 24.2838 95.273 24.6324 95.8768 25.2722C96.4735 25.912 96.7718 26.9579 96.7718 28.41V32.0546ZM94.3133 29.2619V28.41C94.3133 27.9571 94.1947 27.6121 93.9575 27.3749C93.7131 27.1304 93.3572 27.0082 92.89 27.0082C92.5881 27.0011 92.3005 26.9975 92.0274 26.9975C91.747 26.9975 91.4595 27.0011 91.1647 27.0082C90.4675 27.0082 89.975 27.1233 89.6875 27.3533C89.3928 27.5761 89.2454 27.9356 89.2454 28.4316V29.2619H94.3133ZM86.7869 29.2619V28.4208C86.7869 27.9607 86.636 27.6121 86.334 27.3749C86.0321 27.1376 85.5936 27.0154 85.0185 27.0082C84.7094 27.0082 84.4111 27.0082 84.1236 27.0082C83.8288 27.0082 83.5305 27.0082 83.2286 27.0082C82.8188 27.0154 82.5097 27.1376 82.3013 27.3749C82.0856 27.6121 81.9778 27.9607 81.9778 28.4208V29.2619H86.7869Z" fill="white"/>
<path d="M96.7718 20.8101H79.5193L79.5193 13.9954H81.9778L81.9778 18.0174H86.7869V14.211H89.2454V18.0174H94.3133V13.9954L96.7718 13.9954V20.8101Z" fill="white"/>
<path d="M96.9659 7.01166C96.9659 8.44218 96.6604 9.46295 96.0494 10.074C95.4383 10.685 94.4247 11.0229 93.0086 11.0876C92.7282 11.0948 92.4371 11.0983 92.1352 11.0983C91.8333 11.0983 91.5349 11.0912 91.2402 11.0768C90.9383 11.0624 90.6436 11.0408 90.356 11.0121L90.356 8.39186C90.9095 8.42061 91.4595 8.43859 92.0058 8.44577C92.5449 8.44577 93.0481 8.4278 93.5154 8.39186C93.9036 8.35592 94.1983 8.23012 94.3996 8.01446C94.5937 7.79162 94.6907 7.45735 94.6907 7.01166C94.6907 6.57316 94.5937 6.25327 94.3996 6.05199C94.1983 5.85071 93.9036 5.7321 93.5154 5.69615C93.2279 5.6674 92.9547 5.64943 92.6959 5.64224C92.4371 5.62786 92.1747 5.62786 91.9088 5.64224C91.6428 5.64943 91.3624 5.6674 91.0677 5.69615C90.7083 5.71772 90.392 5.80758 90.1188 5.96572C89.8456 6.11668 89.6623 6.37188 89.5689 6.7313L89.1591 8.33795C88.9794 9.03524 88.7206 9.58516 88.3828 9.98772C88.0377 10.3903 87.6064 10.6814 87.0888 10.8611C86.5713 11.0337 85.9602 11.1307 85.2557 11.1523C84.9035 11.1595 84.5656 11.163 84.2422 11.163C83.9115 11.163 83.5844 11.1595 83.2609 11.1523C82.3192 11.1163 81.5608 10.9618 80.9857 10.6886C80.4035 10.4082 79.9829 9.97334 79.7242 9.38388C79.4582 8.78723 79.3252 7.99649 79.3252 7.01166C79.3252 5.62427 79.6307 4.62147 80.2417 4.00325C80.8456 3.37785 81.852 3.03639 83.2609 2.97888C83.5916 2.9645 83.9978 2.96091 84.4794 2.9681C84.961 2.97529 85.4247 2.98966 85.8704 3.01123V5.68537C85.3528 5.66381 84.8352 5.64943 84.3176 5.64224C83.7929 5.63505 83.2717 5.64224 82.7541 5.66381C82.3731 5.67818 82.0856 5.80398 81.8915 6.0412C81.6974 6.27124 81.6004 6.59472 81.6004 7.01166C81.6004 7.45735 81.6974 7.78443 81.8915 7.9929C82.0856 8.20136 82.3731 8.32716 82.7541 8.3703C83.1711 8.40624 83.588 8.42421 84.0049 8.42421C84.4219 8.42421 84.8388 8.40624 85.2557 8.3703C85.6296 8.33435 85.9459 8.2409 86.2046 8.08994C86.4634 7.93179 86.6395 7.65863 86.733 7.27045L87.0673 5.8579C87.247 5.11748 87.5165 4.5352 87.876 4.11108C88.2282 3.68695 88.6703 3.38503 89.2023 3.20532C89.7342 3.01842 90.356 2.91418 91.0677 2.89262C91.3049 2.88543 91.5314 2.88184 91.747 2.88184C91.9555 2.88184 92.1639 2.88543 92.3724 2.89262C92.5737 2.89262 92.7858 2.89981 93.0086 2.91418C94.4247 2.97169 95.4383 3.30955 96.0494 3.92777C96.6604 4.5388 96.9659 5.56676 96.9659 7.01166Z" fill="white"/>
</svg>
